<svg xmlns="http://www.w3.org/2000/svg" xmlns:xlink="http://www.w3.org/1999/xlink" width="100%" height="100%" viewBox="0 0 2000 500" fill-rule="evenodd" stroke-linecap="square"><path d="M0 0h2000v500H0z" fill="#f1a51c"/><path d="M1364.14 500H703.226V92.164c0-3.016 2.446-5.462 5.462-5.462h650c3.016 0 5.462 2.446 5.462 5.462V500z" fill="#10273c"/><path d="M703.226 109.46h660.913V500H703.226zm20.938-11.834a3.64 3.64 0 0 1-3.641 3.641c-2 0-3.642-1.63-3.642-3.64s1.63-3.642 3.642-3.642a3.64 3.64 0 0 1 3.64 3.642m14.567-.001a3.64 3.64 0 1 1-7.283-.001c0-2 1.63-3.642 3.64-3.642s3.642 1.63 3.642 3.642m14.566.001a3.641 3.641 0 1 1-7.282 0c0-2 1.63-3.642 3.64-3.642a3.64 3.64 0 0 1 3.64 3.642" fill="#1f4c74"/><circle cx="1326.82" cy="145.874" r="19.117" fill="#10273c" fill-opacity=".5"/><g fill="none" stroke="#fff" stroke-width="3.64"><path d="M1322.26,141.322l8.203,8.203"/><path d="M1330.47,141.322l-8.203,8.203"/></g><g fill="#496d8d"><path d="M1054.62 286.247a2 2 0 0 0-2-2H883.654a2 2 0 0 0-2 2v6.924a2 2 0 0 0 2 2h168.966a2 2 0 0 0 2-2v-6.924zm-71.917 173.877a2 2 0 0 0-2-2h-97.048a2 2 0 0 0-2 2v6.924a2 2 0 0 0 2 2h97.048a2 2 0 0 0 2-2v-6.924z"/><use xlink:href="#B"/><use xlink:href="#B" y="173.877"/><use xlink:href="#B" y="-29.131"/><use xlink:href="#B" y="144.746"/><path d="M1169.33 198.854a2 2 0 0 0-2-2H883.66a2 2 0 0 0-2 2v6.924a2 2 0 0 0 2 2h283.67a2 2 0 0 0 2-2v-6.924zm0 173.876a2 2 0 0 0-2-2H883.66a2 2 0 0 0-2 2v6.925a2 2 0 0 0 2 2h283.67a2 2 0 0 0 2-2v-6.925z"/><use xlink:href="#B" y="-87.393"/><path d="M1185.7 343.6a2 2 0 0 0-2-2H883.654a2 2 0 0 0-2 2v6.924a2 2 0 0 0 2 2H1183.7a2 2 0 0 0 2-2V343.6z"/></g><path d="M1364.14 268.158v111.36L1178.613 500h-171.48l357.006-231.842zM929.245 109.46h153.375L703.226 355.84v-99.603l226.02-146.778z" fill-opacity=".7" fill="#fff"/><use xlink:href="#C"/><use xlink:href="#C" fill="#1f4c74"/><g fill="#496d8d"><use xlink:href="#D"/><path d="M731.447 371.82a2 2 0 0 0-2-2h-72.47a2 2 0 0 0-2 2v6.924a2 2 0 0 0 2 2h72.47a2 2 0 0 0 2-2v-6.924z"/><use xlink:href="#D" y="-30.043"/><path d="M732.357 480.152a2 2 0 0 0-2-2h-73.38a2 2 0 0 0-2 2v6.924a2 2 0 0 0 2 2h73.38a2 2 0 0 0 2-2v-6.924zm49.16-198.456a2 2 0 0 0-2-2H656.978a2 2 0 0 0-2 2v6.924a2 2 0 0 0 2 2h122.538a2 2 0 0 0 2-2v-6.924zm0 168.404a2 2 0 0 0-2-2H656.978a2 2 0 0 0-2 2v6.924a2 2 0 0 0 2 2h122.538a2 2 0 0 0 2-2V450.1z"/><use xlink:href="#D" y="-90.126"/><use xlink:href="#D" y="78.29"/></g><path d="M808.827 386.888v63.855L732.977 500H635.86v-.786l172.967-112.326zm-99-180.02h93.548a5.44 5.44 0 0 1 3.193 1.03L635.86 318.75v-63.854l73.957-48.028z" fill-opacity=".7" fill="#fff"/><use xlink:href="#E" fill-rule="nonzero"/><use xlink:href="#E" fill="#fff"/><g fill-rule="nonzero"><path d="M1341.84 186.856l-3.357 1.4-5.645-13.426 3.352-1.41 5.65 13.427z"/><path d="M1329.55 162.09v20.37l5.406-5.218.78-.253h8.68l-14.866-14.9z"/></g><use xlink:href="#F"/><use xlink:href="#F" fill="#fff"/><path d="M1131.64 224.08c.583-.663 1.592-.726 2.253-.14l4.945 4.94 4.875-4.873a1.6 1.6 0 1 1 2.263 2.264l-4.873 4.872 4.802 4.8c.617.546.713 1.464.25 2.122l-.108.137c-.584.663-1.592.726-2.253.14l-4.946-4.942-4.874 4.874a1.6 1.6 0 1 1-2.264-2.263l4.872-4.874-4.8-4.798c-.617-.546-.713-1.463-.25-2.122l.108-.137z" fill="#cecece" fill-opacity=".74" fill-rule="nonzero"/><text x="917.615" y="241.974" font-family="LucidaGrande-Bold, Lucida Grande, sans-serif" font-weight="600" font-size="23.723" fill="#616161">Modal</text><path d="M1086.9 335.035c1.4 0 2.534 1.134 2.534 2.534v7.602c0 1.4-1.134 2.534-2.534 2.534H920.922c-1.4 0-2.534-1.135-2.534-2.534v-7.602c0-1.4 1.135-2.534 2.534-2.534H1086.9zm36.744-24.074c1.4 0 2.534 1.135 2.534 2.534v7.602c0 1.4-1.135 2.534-2.534 2.534H920.922c-1.4 0-2.534-1.134-2.534-2.534v-7.602c0-1.4 1.135-2.534 2.534-2.534h202.722zm21.54-24.073c1.4 0 2.534 1.135 2.534 2.534v7.602c0 1.4-1.135 2.534-2.534 2.534h-224.26c-1.4 0-2.534-1.134-2.534-2.534v-7.602c0-1.4 1.135-2.534 2.534-2.534h224.26zm0-24.073c1.4 0 2.534 1.135 2.534 2.534v7.602c0 1.4-1.135 2.534-2.534 2.534h-224.26c-1.4 0-2.534-1.134-2.534-2.534v-7.602c0-1.4 1.135-2.534 2.534-2.534h224.26z" fill="#d5e7ff" fill-opacity=".55"/><path d="M905.08 363.542h257.203M904.448 250.145h257.203" fill="none" stroke="#e6e6e6" stroke-width="1.27"/><path d="M1076.76 379.58c0-2.208-1.792-4-4-4h-55.35c-2.208 0-4 1.792-4 4v12.272c0 2.208 1.792 4 4 4h55.35c2.208 0 4-1.792 4-4V379.58z" fill="#e4e4e4"/><path d="M1146.45 379.58c0-2.208-1.793-4-4-4h-55.35c-2.207 0-4 1.792-4 4v12.272c0 2.208 1.793 4 4 4h55.35c2.207 0 4-1.792 4-4V379.58z" fill="#9ec7ff"/><defs ><path id="B" d="M1185.7 257.116a2 2 0 0 0-2-2H883.654a2 2 0 0 0-2 2v6.924a2 2 0 0 0 2 2H1183.7a2 2 0 0 0 2-2v-6.924z"/><path id="C" d="M641.322 206.868h162.043c3.016 0 5.462 2.445 5.462 5.462V500H635.86V212.33c0-3.017 2.446-5.462 5.462-5.462z"/><path id="D" d="M788.8 341.78a2 2 0 0 0-2-2h-129.82a2 2 0 0 0-2 2v6.924a2 2 0 0 0 2 2H786.8a2 2 0 0 0 2-2v-6.924z"/><path id="E" d="M1340.44 178.863l3.825 9.233-6.566 2.793-4.104-9.723-5.87 5.7V157.71l21.103 21.154h-8.387z"/><path id="F" d="M1162.92 216.868c0-3.312-2.69-6-6-6H910.45c-3.312 0-6 2.688-6 6v188.187c0 3.312 2.688 6 6 6h246.47c3.31 0 6-2.688 6-6V216.868z"/></defs></svg>