<svg xmlns="http://www.w3.org/2000/svg" fill-rule="evenodd" stroke-linejoin="round" stroke-miterlimit="2" viewBox="0 0 2000 500"><style><![CDATA[.B{fill-rule:nonzero}.C{fill:#c4cc25}.D{fill:#414042}.E{clip-rule:evenodd}]]></style><linearGradient id="A" gradientUnits="userSpaceOnUse" x1="955.657" x2="1161.615" y1="150.684" y2="98.622"><stop offset="0" stop-color="#00aeff"/><stop offset="1" stop-color="#3369e7"/></linearGradient><clipPath id="B"><path d="M1143.97 261.227c0 87.303-70.762 158.064-158.065 158.064S827.84 348.53 827.84 261.227s70.76-158.064 158.064-158.064c87.276 0 158.065 70.76 158.065 158.064z" class="E"/></clipPath><clipPath id="C"><path d="M1165.6 140.564l42.28 85.618-85.62 42.283-42.28-85.618z" class="E"/></clipPath><path d="M0 0h2000v500H0z" fill="#007b93"/><g class="B"><g clip-path="url(#B)"><path d="M1143.94 261.227c0 87.276-70.76 158.064-158.037 158.064-87.303 0-158.064-70.76-158.064-158.064s70.76-158.064 158.064-158.064c87.276 0 158.037 70.76 158.037 158.064z" class="C"/><path d="M1128.56 261.227c0 78.79-63.87 142.658-142.658 142.658s-142.658-63.87-142.658-142.658 63.87-142.658 142.658-142.658 142.658 63.87 142.658 142.658z" fill="#d6e029"/><path d="M1119.32 300.257h-39.49v-10.704h-22V193.98c0-5.028-4.082-9.11-9.11-9.11h-55.598l-62.41-106.547-99.412 58.247 66.22 113.088v39.894h-22v10.704h-39.435v13.757h27.083L844.33 446.51h16.136l15.622-109.763h203.257l15.595 109.763h16.137l-18.84-132.495h27.083z" class="C"/><path d="M1127.48 300.257H844.327v13.784h283.153z" fill="#cfb764"/><g fill="#bfa85b"><path d="M871.383 314.04l-18.84 132.495h16.137l18.84-132.495zm229.037 0h-16.136l3.243 22.732 15.596 109.763h16.136z"/></g></g><path d="M988.66 348.53H967.2a2.48 2.48 0 0 0-2.486 2.487v21.46a2.48 2.48 0 0 0 2.486 2.486h21.46a2.48 2.48 0 0 0 2.487-2.486v-21.46c-.027-1.38-1.135-2.487-2.487-2.487z" class="C"/><path d="M839.516 136.57l60.788 103.763-33.948-119.494z" fill="#ff7754"/><path d="M1014.9 208.035l-75.978-129.71-72.572 42.516 33.948 119.494 15.2 25.92z" fill="#f0714e"/><path d="M1020.74 221.873L909.652 252.39 869.84 107.46l111.088-30.516z" fill="#fff"/><path d="M980.985 120.786l-88.816 24.407-7.92-28.867 88.817-24.38zM985.3 136.5l-88.817 24.407-2.027-7.405 88.816-24.407zm-56.156 31.65l-28.515 7.838-2.028-7.405 28.516-7.84zm60.3-16.568l-48.733 13.406-2.027-7.433 48.733-13.38zm4.162 15.082l-88.843 24.407-2.027-7.433 88.816-24.38zm4.136 15.082l-88.817 24.407-2.054-7.433 88.817-24.407zm-30.38 24.57l-54.3 14.92-2.027-7.433 54.273-14.92zm34.517-9.487l-20.758 5.703-2.054-7.433 20.785-5.703zm-60.546 32.84l-24.137 6.622-2.027-7.406 24.137-6.622z" fill="#e6e7e8"/><path d="M1056.87 67.44l58.014 33.353c5.7 3.284 7.704 10.598 4.407 16.332l-33.367 58.038a11.97 11.97 0 0 1-16.332 4.408l-58.014-33.354c-5.7-3.283-7.705-10.597-4.408-16.332l33.38-58.06c3.284-5.71 10.584-7.68 16.32-4.384z" fill="url(#A)"/><path d="M1075.34 104.54c-12.28-7.06-27.973-2.826-35.048 9.48s-2.825 27.973 9.456 35.034 27.974 2.826 35.048-9.48 2.85-27.96-9.456-35.034zm-21.814 37.943c-8.65-4.973-11.636-16.036-6.663-24.686s16.036-11.635 24.686-6.662 11.636 16.036 6.663 24.685-16.013 11.65-24.686 6.663zm16.182-28.147l-6.717 11.684c-.193.335.028.78.435.79l13.46.586c.308.018.544-.228.562-.535.02-5.012-2.487-9.886-7.002-12.705-.24-.137-.588-.083-.74.18zm-9.596-16.93l-.578-2.145a3.93 3.93 0 0 0-4.827-2.775l-2.56.69c-2.107.57-3.344 2.72-2.775 4.827l.57 2.107c.09.34.43.47.744.364 1.407-.622 2.858-1.155 4.363-1.56a28.44 28.44 0 0 1 4.593-.856c.322-.006.538-.327.47-.652zm23.85 9.006l1.552-2.7a3.94 3.94 0 0 0-1.453-5.381l-7.956-4.575a3.94 3.94 0 0 0-5.381 1.453l-1.594 2.77c-.178.31-.015.69.336.798 2.593.632 5.127 1.644 7.493 3.004a29.12 29.12 0 0 1 6.168 4.754c.246.237.656.187.835-.124z" fill="#fff"/></g><g clip-path="url(#C)"><path d="M1186.75 183.373c11.67 23.627 1.96 52.282-21.667 63.95s-52.282 1.96-63.95-21.667-1.96-52.282 21.667-63.95 52.282-1.96 63.95 21.667z" fill="#639"/><path d="M1108.3 192.443c3.25-9.593 10.15-17.185 18.407-21.262l-16.564 49.64c-3.923-8.713-5.093-18.785-1.843-28.377zm6.536 35.568l20.274-59.84c16.644-4.036 34.603 3.83 42.455 19.732 5.587 11.313 4.916 23.816-.32 34.01l-6.24-2.623c4.465-8.672 4.975-19.193.444-28.366-5.89-11.926-18.517-18.24-31.182-16.93l-17.798 52.53c7.437 7.357 18.403 10.31 28.634 7.92l-7.25-14.677 6.116-3.02 10.57 21.404c-15.9 7.853-34.942 3.183-45.705-10.14z" fill="#fff" class="B"/></g><path d="M1066.05 193.98c0-5.028-4.082-9.11-9.11-9.11h-142.1c-5.028 0-9.11 4.08-9.11 9.11v4.297h160.28v-4.297z" class="B D"/><path d="M905.764 198.277h160.28v91.276h-160.28z" fill="#0095a1"/><path d="M883.763 289.553h204.283v10.703H883.763z" fill="#e6e7e8"/><path d="M1066.05 198.277H905.77v91.276h5.244v-86.005h155.037z" fill="#00818c" class="B"/><path d="m959.876 289.553h52.03v4.108h-52.03z" fill="#c8c8c9"/><path d="M1033.2 210.1a4.41 4.41 0 0 0-4.406-4.406h-86.98c-2.432 0-4.405 1.973-4.405 4.406v3.973h95.8zm-95.785 67.652c0 2.432 1.973 4.405 4.405 4.405h86.98c2.433 0 4.406-1.973 4.406-4.405v-3.973h-95.8z" fill="#20d1be" class="B"/><path d="m937.415 214.062h95.817v59.734h-95.817z" fill="#27ffe8"/><g class="B"><path d="M1022.77 247.82c0 1.324-1.082 2.406-2.406 2.406h-45.3c-1.325 0-2.406-1.082-2.406-2.406v-9.217a2.41 2.41 0 0 1 2.406-2.405h45.3a2.41 2.41 0 0 1 2.406 2.405zm-72.922-11.838c-2.65 2.65-2.65 6.974 0 9.65a6.84 6.84 0 0 0 8 1.216l5.028 5.027c.784.784 2.054.784 2.838 0s.784-2.054 0-2.838l-5.028-5.054c1.352-2.568.973-5.838-1.216-8-2.65-2.676-6.946-2.676-9.622 0zm8.217 8.217a4.75 4.75 0 0 1-6.731 0c-1.865-1.865-1.865-4.865 0-6.73a4.75 4.75 0 0 1 6.731 0c1.865 1.865 1.865 4.865 0 6.73z" fill="#fff"/><path d="M886.52 321.07l-2.243 15.704h193.85l-3.243-15.704z" fill="#ab9652"/><path d="M1084.3 314.04H887.52l-1 7.028h188.364l3.243 15.704h9.406z" fill="#a18c4c"/><path d="M996.04 348.53h-21.46a2.48 2.48 0 0 0-2.486 2.487v21.46a2.48 2.48 0 0 0 2.486 2.486h21.46a2.48 2.48 0 0 0 2.487-2.486v-21.46a2.5 2.5 0 0 0-2.487-2.487zm-.162 21.3a2.48 2.48 0 0 1-2.487 2.486h-16.217a2.48 2.48 0 0 1-2.487-2.486v-16.217a2.48 2.48 0 0 1 2.487-2.487h16.217a2.48 2.48 0 0 1 2.487 2.487z" fill="#ebebeb"/><path d="M993.418 351.152H977.2a2.48 2.48 0 0 0-2.487 2.487v16.217a2.48 2.48 0 0 0 2.487 2.486h16.217a2.48 2.48 0 0 0 2.487-2.486V353.64c-.027-1.38-1.135-2.487-2.487-2.487z" fill="#fff"/><path d="M993.526 361.72c0 4.54-3.676 8.217-8.216 8.217s-8.217-3.676-8.217-8.217 3.676-8.217 8.217-8.217 8.216 3.676 8.216 8.217z" class="D"/><g fill="#4f4e52"><path d="M988.472 374.532a2.48 2.48 0 0 1-2.487 2.486h-1.378a2.48 2.48 0 0 1-2.487-2.486v-15a2.48 2.48 0 0 1 2.487-2.487h1.378a2.48 2.48 0 0 1 2.487 2.487z"/><path d="M1005.23 393.938h-11.352c-5.676 0-10.27-4.19-10.27-9.324v-7.596h3.432v7.596c0 3.243 3.082 5.892 6.866 5.892h11.352c3.784 0 6.838-3.08 6.838-6.865v-46.895h3.433v46.895c-.027 5.676-4.622 10.297-10.298 10.297z"/></g><path d="M996.04 224.144c-10.81 15.217-7.244 36.326 7.974 47.138 13.81 9.838 32.488 7.784 43.92-4.08l13.055 9.297c-.054-1.756.433-3.54 1.54-5.054 1.08-1.54 2.622-2.595 4.27-3.108l-13.055-9.325c7.46-14.677 3.27-33.002-10.568-42.814-15.217-10.81-36.3-7.243-47.138 7.947zm49.922 35.49c-8.784 12.352-25.92 15.244-38.273 6.46s-15.244-25.92-6.46-38.272a27.45 27.45 0 0 1 38.272-6.46c12.352 8.81 15.245 25.92 6.46 38.273z" class="D"/><path d="M1001.23 227.847c-8.785 12.352-5.893 29.488 6.46 38.272s29.49 5.893 38.273-6.46 5.892-29.49-6.46-38.273a27.45 27.45 0 0 0-38.272 6.46z" fill="#3bdfff" fill-opacity=".2"/><path d="M1062.53 271.417c-1.108 1.54-1.595 3.325-1.54 5.054.08 2.54 1.27 5.028 3.514 6.595l28.704 20.407c3.757 2.676 8.974 1.784 11.677-1.973.622-.865 1.027-1.81 1.297-2.784l-41.435-29.407a8.17 8.17 0 0 0-2.216 2.108z" fill="#ff7754"/><path d="M1066.8 268.31a7.76 7.76 0 0 0-2.081 1l41.408 29.434c.838-3.243-.35-6.81-3.243-8.892l-28.705-20.407c-2.216-1.568-4.946-1.892-7.38-1.135z" fill="#f0704f"/><path d="M1047.93 267.2s3.865-4.136 5.81-8.2l2.595 1.838-6.973 7.352z" fill="#323133"/></g></svg>