<svg clip-rule="evenodd" fill-rule="evenodd" stroke-linejoin="round" stroke-miterlimit="2" viewBox="0 0 1000 500" xmlns="http://www.w3.org/2000/svg" xmlns:xlink="http://www.w3.org/1999/xlink"><linearGradient id="a" gradientTransform="matrix(0 500 -500 0 500 0)" gradientUnits="userSpaceOnUse" x1="0" x2="1" y1="0" y2="0"><stop offset="0" stop-color="#ffe500"/><stop offset="1" stop-color="#c95858"/></linearGradient><linearGradient id="b"><stop offset="0" stop-color="#c300ff"/><stop offset="1" stop-color="#00059d"/></linearGradient><linearGradient id="c" gradientTransform="matrix(0 171.4 -171.4 0 273.56 118.494)" gradientUnits="userSpaceOnUse" x1="0" x2="1" xlink:href="#b" y1="0" y2="0"/><linearGradient id="d" gradientTransform="matrix(0 71.6221 -171.4 0 424.52 118.494)" gradientUnits="userSpaceOnUse" x1="0" x2="1" xlink:href="#b" y1="0" y2="0"/><linearGradient id="e" gradientTransform="matrix(0 71.6221 -171.4 0 273.56 309.884)" gradientUnits="userSpaceOnUse" x1="0" x2="1" xlink:href="#b" y1="0" y2="0"/><linearGradient id="f" gradientTransform="matrix(0 107.64 -171.4 0 424.52 210.149)" gradientUnits="userSpaceOnUse" x1="0" x2="1" xlink:href="#b" y1="0" y2="0"/><linearGradient id="g" gradientTransform="matrix(0 43.6843 -171.4 0 424.52 337.822)" gradientUnits="userSpaceOnUse" x1="0" x2="1" xlink:href="#b" y1="0" y2="0"/><linearGradient id="h" gradientTransform="matrix(0 98.1627 -171.4 0 575.48 283.344)" gradientUnits="userSpaceOnUse" x1="0" x2="1" xlink:href="#b" y1="0" y2="0"/><linearGradient id="i" gradientTransform="matrix(0 144.83 -171.4 0 575.48 118.494)" gradientUnits="userSpaceOnUse" x1="0" x2="1" xlink:href="#b" y1="0" y2="0"/><linearGradient id="j" gradientTransform="matrix(0 41.5 -171.4 0 726.44 340.006)" gradientUnits="userSpaceOnUse" x1="0" x2="1" xlink:href="#b" y1="0" y2="0"/><linearGradient id="k" gradientTransform="matrix(0 41.5 -171.4 0 726.44 118.494)" gradientUnits="userSpaceOnUse" x1="0" x2="1" xlink:href="#b" y1="0" y2="0"/><linearGradient id="l" gradientTransform="matrix(0 142.447 -171.4 0 726.44 179.968)" gradientUnits="userSpaceOnUse" x1="0" x2="1" xlink:href="#b" y1="0" y2="0"/><path d="m0 0h1000v500h-1000z" fill="url(#a)"/><path d="m339.06 125.043c0-3.615-2.935-6.549-6.55-6.549h-117.899c-3.615 0-6.55 2.934-6.55 6.549v158.301c0 3.615 2.935 6.55 6.55 6.55h117.899c3.615 0 6.55-2.935 6.55-6.55z" fill="url(#c)"/><path d="m490.02 122.075c0-1.977-1.605-3.581-3.582-3.581h-123.836c-1.977 0-3.581 1.604-3.581 3.581v64.46c0 1.976 1.604 3.581 3.581 3.581h123.836c1.977 0 3.582-1.605 3.582-3.581z" fill="url(#d)"/><path d="m339.06 313.465c0-1.976-1.605-3.581-3.581-3.581h-123.837c-1.976 0-3.581 1.605-3.581 3.581v64.46c0 1.977 1.605 3.581 3.581 3.581h123.837c1.976 0 3.581-1.604 3.581-3.581z" fill="url(#e)"/><path d="m490.02 215.531c0-2.971-2.412-5.382-5.382-5.382h-120.235c-2.971 0-5.382 2.411-5.382 5.382v96.876c0 2.97 2.411 5.382 5.382 5.382h120.235c2.97 0 5.382-2.412 5.382-5.382z" fill="url(#f)"/><path d="m490.02 340.006c0-1.205-.979-2.184-2.185-2.184h-126.63c-1.206 0-2.184.979-2.184 2.184v39.316c0 1.206.978 2.184 2.184 2.184h126.63c1.206 0 2.185-.978 2.185-2.184z" fill="url(#g)"/><path d="m640.979 288.252c0-2.709-2.199-4.908-4.908-4.908h-121.182c-2.709 0-4.909 2.199-4.909 4.908v88.346c0 2.709 2.2 4.908 4.909 4.908h121.182c2.709 0 4.908-2.199 4.908-4.908z" fill="url(#h)"/><path d="m640.979 125.043c0-3.615-2.935-6.549-6.55-6.549h-117.899c-3.615 0-6.55 2.934-6.55 6.549v131.731c0 3.615 2.935 6.55 6.55 6.55h117.899c3.615 0 6.55-2.935 6.55-6.55z" fill="url(#i)"/><path d="m791.939 342.081c0-1.145-.93-2.075-2.075-2.075h-126.849c-1.145 0-2.075.93-2.075 2.075v37.35c0 1.146.93 2.075 2.075 2.075h126.849c1.145 0 2.075-.929 2.075-2.075z" fill="url(#j)"/><path d="m791.939 120.569c0-1.146-.93-2.075-2.075-2.075h-126.849c-1.145 0-2.075.929-2.075 2.075v37.35c0 1.145.93 2.075 2.075 2.075h126.849c1.145 0 2.075-.93 2.075-2.075z" fill="url(#k)"/><path d="m791.939 186.518c0-3.615-2.935-6.55-6.55-6.55h-117.899c-3.615 0-6.55 2.935-6.55 6.55v129.347c0 3.615 2.935 6.55 6.55 6.55h117.899c3.615 0 6.55-2.935 6.55-6.55z" fill="url(#l)"/></svg>