<svg clip-rule="evenodd" fill-rule="evenodd" stroke-linejoin="round" stroke-miterlimit="2" viewBox="0 0 2000 500" xmlns="http://www.w3.org/2000/svg" xmlns:xlink="http://www.w3.org/1999/xlink"><linearGradient id="a" gradientTransform="matrix(0 500 -1000 0 960.205 0)" gradientUnits="userSpaceOnUse" x1="0" x2="1" y1="0" y2="0"><stop offset="0" stop-color="#00c5ff"/><stop offset=".28" stop-color="#00e0ff"/><stop offset=".5" stop-color="#00ecff"/><stop offset=".75" stop-color="#0df"/><stop offset="1" stop-color="#00adff"/></linearGradient><path d="m0 0h2000v500h-2000z" fill="url(#a)"/><path d="m964.55 270.059c-.416-2.834-3.054-4.796-5.887-4.38l-192.762 28.292c-2.834.416-4.797 3.054-4.381 5.888l13.564 92.413c.416 2.833 3.054 4.796 5.888 4.38l192.762-28.293c2.833-.415 4.796-3.054 4.38-5.887z" fill="#24ddaf"/><path d="m860.494 323.692c4.027-3.506 11.246-4.56 16.101-2.363l93.464 42.291c4.865 2.201 3.99 4.693-1.892 5.557l-181.628 26.658c-5.91.867-7.429-1.279-3.409-4.779z" fill="#1fd6a9"/><path d="m767.985 294.122c1.069-.453 2.241-.786 3.483-.968l181.628-26.658c1.259-.185 2.491-.202 3.657-.072 2.894.479 3.349 2.537.721 5.408l-70.464 76.984c-6.97 7.615-19.814 9.49-28.659 4.206l-89.549-53.497c-3.345-1.998-3.475-4.113-.817-5.403z" fill="#1b2d4c" fill-opacity=".1"/><path d="m769.576 298.711c-4.865-2.202-3.991-4.694 1.892-5.557l181.628-26.658c5.91-.868 7.428 1.278 3.409 4.778l-77.365 67.364c-4.027 3.507-11.245 4.56-16.101 2.363z" fill="#61ffd8"/><path d="m1129.36 374.134c-8.065-8.066-21.161-8.066-29.227 0-8.065 8.065-8.065 21.161 0 29.227l213.937 213.937c8.066 8.065 21.162 8.065 29.227 0 8.066-8.066 8.066-21.162 0-29.227z" fill="#0045ff"/><path d="m1140.54 326.863c-8.065-8.065-21.162-8.065-29.227 0-8.066 8.066-8.066 21.162 0 29.227l231.98 231.981c8.066 8.065 21.162 8.065 29.228 0 8.065-8.066 8.065-21.162 0-29.227z" fill="#ffe700"/><path d="m1222.82 292.233c-8.066-8.066-21.162-8.066-29.227 0-8.066 8.065-8.066 21.161 0 29.227l208.157 208.157c8.065 8.065 21.161 8.065 29.227 0 8.065-8.066 8.065-21.162 0-29.228z" fill="#ffb740"/><path d="m1154.47 282.342c-8.066-8.066-21.162-8.066-29.227 0-8.066 8.065-8.066 21.161 0 29.227l247.275 247.275c8.065 8.065 21.161 8.065 29.227 0 8.065-8.066 8.065-21.162 0-29.227z" fill="#00ffc5"/><path d="m724.936 143.433c6.12 6.12 16.057 6.12 22.177 0s6.12-16.057 0-22.177l-210.213-210.212c-6.12-6.12-16.057-6.12-22.177 0-6.119 6.119-6.119 16.056 0 22.176z" fill="#0640db"/><path d="m720.003 182.853c6.12 6.12 16.057 6.12 22.177 0s6.12-16.057 0-22.176l-227.457-227.457c-6.119-6.12-16.056-6.12-22.176 0s-6.12 16.057 0 22.177z" fill="#e3cd00"/><path d="m652.882 204.438c6.12 6.12 16.057 6.12 22.177 0 6.12-6.119 6.12-16.056 0-22.176l-204.689-204.689c-6.119-6.12-16.056-6.12-22.176 0s-6.12 16.057 0 22.177z" fill="#ff5040"/><path d="m712.444 219.646c6.119 6.12 16.056 6.12 22.176 0 6.12-6.119 6.12-16.056 0-22.176l-242.073-242.073c-6.12-6.12-16.057-6.12-22.177 0-6.119 6.119-6.119 16.056 0 22.176z" fill="#f09"/><path d="m1155.73 94.693c.231-2.552-1.654-4.813-4.206-5.044l-173.651-15.745c-2.553-.232-4.813 1.653-5.045 4.206l-7.548 83.25c-.231 2.553 1.653 4.813 4.206 5.045l173.651 15.745c2.552.231 4.813-1.653 5.044-4.206z" fill="#24ddaf"/><path d="m1053.95 119.572c4.239-2.208 10.74-1.613 14.505 1.316l72.469 56.368c3.773 2.934 2.49 4.919-2.809 4.439l-163.621-14.836c-5.324-.482-6.196-2.668-1.966-4.871z" fill="#1fd6a9"/><path d="m979.651 74.471c1.025-.17 2.114-.214 3.233-.112l163.621 14.835c1.134.103 2.21.346 3.197.703 2.417 1.023 2.383 2.91-.505 4.858l-77.432 52.23c-7.66 5.167-19.228 4.109-25.818-2.341l-66.717-65.3c-2.492-2.439-2.162-4.307.421-4.873z" fill="#1b2d4c" fill-opacity=".1"/><path d="m980.074 78.798c-3.772-2.935-2.489-4.92 2.81-4.439l163.621 14.835c5.324.483 6.196 2.668 1.966 4.872l-81.423 42.415c-4.238 2.208-10.74 1.614-14.505-1.315z" fill="#61ffd8"/></svg>